<?xml version="1.0" encoding="UTF-8" standalone="no"?>
<svg
   width="157"
   height="27"
   viewBox="0 0 157 27"
   fill="none"
   version="1.1"
   id="svg6"
   sodipodi:docname="logo2.svg"
   xmlns:inkscape="http://www.inkscape.org/namespaces/inkscape"
   xmlns:sodipodi="http://sodipodi.sourceforge.net/DTD/sodipodi-0.dtd"
   xmlns="http://www.w3.org/2000/svg"
   xmlns:svg="http://www.w3.org/2000/svg">
  <sodipodi:namedview
     id="namedview6"
     pagecolor="#ffffff"
     bordercolor="#000000"
     borderopacity="0.25"
     inkscape:showpageshadow="2"
     inkscape:pageopacity="0.0"
     inkscape:pagecheckerboard="0"
     inkscape:deskcolor="#d1d1d1" />
  <rect
     style="display:none;fill:#000000;stroke-width:3.24929"
     id="rect7"
     width="157.55476"
     height="27.553593"
     x="0.18492334"
     y="0.18492264" />
  <path
     d="m 70.14,3 h 5.94 v 21 h -5.94 z m -8.1,21 H 56.1 V 3 h 5.94 z m 8.52,-8.19 h -8.94 v -4.92 h 8.94 z"
     fill="#d21c23"
     id="path5"
     style="display:none" />
  <path
     d="m 89.9299,24 v -3.03 l -0.39,-0.75 v -5.58 c 0,-0.9 -0.28,-1.59 -0.84,-2.07 -0.54,-0.5 -1.41,-0.75 -2.61,-0.75 -0.78,0 -1.57,0.13 -2.37,0.39 -0.8,0.24 -1.48,0.58 -2.04,1.02 l -1.92,-3.87 c 0.92,-0.6 2.02,-1.06 3.3,-1.38 1.3,-0.34 2.59,-0.51 3.87,-0.51 2.64,0 4.68,0.61 6.12,1.83 1.46,1.2 2.19,3.09 2.19,5.67 V 24 Z m -4.8,0.27 c -1.3,0 -2.4,-0.22 -3.3,-0.66 -0.9,-0.44 -1.59,-1.04 -2.07,-1.8 -0.46,-0.76 -0.69,-1.61 -0.69,-2.55 0,-1 0.25,-1.86 0.75,-2.58 0.52,-0.74 1.31,-1.3 2.37,-1.68 1.06,-0.4 2.43,-0.6 4.11,-0.6 h 3.84 v 2.97 h -3.06 c -0.92,0 -1.57,0.15 -1.95,0.45 -0.36,0.3 -0.54,0.7 -0.54,1.2 0,0.5 0.19,0.9 0.57,1.2 0.38,0.3 0.9,0.45 1.56,0.45 0.62,0 1.18,-0.15 1.68,-0.45 0.52,-0.32 0.9,-0.8 1.14,-1.44 l 0.78,2.1 c -0.3,1.12 -0.89,1.97 -1.77,2.55 -0.86,0.56 -2,0.84 -3.42,0.84 z m 22.0731,0 c -1.78,0 -3.36,-0.36 -4.74,-1.08 -1.38,-0.72 -2.4701,-1.71 -3.2701,-2.97 -0.78,-1.28 -1.17,-2.74 -1.17,-4.38 0,-1.64 0.39,-3.09 1.17,-4.35 0.8,-1.26 1.8901,-2.24 3.2701,-2.94 1.38,-0.72 2.96,-1.08 4.74,-1.08 1.78,0 3.36,0.36 4.74,1.08 1.4,0.7 2.49,1.68 3.27,2.94 0.78,1.26 1.17,2.71 1.17,4.35 0,1.64 -0.39,3.1 -1.17,4.38 -0.78,1.26 -1.87,2.25 -3.27,2.97 -1.38,0.72 -2.96,1.08 -4.74,1.08 z m 0,-4.53 c 0.66,0 1.24,-0.15 1.74,-0.45 0.52,-0.3 0.93,-0.74 1.23,-1.32 0.3,-0.6 0.45,-1.31 0.45,-2.13 0,-0.82 -0.15,-1.51 -0.45,-2.07 -0.3,-0.58 -0.71,-1.02 -1.23,-1.32 -0.5,-0.3 -1.08,-0.45 -1.74,-0.45 -0.64,0 -1.22,0.15 -1.74,0.45 -0.5,0.3 -0.91,0.74 -1.23,1.32 -0.3,0.56 -0.45,1.25 -0.45,2.07 0,0.82 0.15,1.53 0.45,2.13 0.32,0.58 0.73,1.02 1.23,1.32 0.52,0.3 1.1,0.45 1.74,0.45 z m 22.41,-12.27 c 1.26,0 2.4,0.26 3.42,0.78 1.02,0.5 1.82,1.28 2.4,2.34 0.6,1.06 0.9,2.43 0.9,4.11 V 24 h -5.7 v -8.37 c 0,-1.16 -0.24,-2 -0.72,-2.52 -0.46,-0.54 -1.11,-0.81 -1.95,-0.81 -0.6,0 -1.15,0.14 -1.65,0.42 -0.5,0.26 -0.89,0.67 -1.17,1.23 -0.28,0.56 -0.42,1.29 -0.42,2.19 V 24 h -5.7 V 7.74 h 5.43 v 4.62 l -1.05,-1.35 c 0.62,-1.18 1.47,-2.06 2.55,-2.64 1.08,-0.6 2.3,-0.9 3.66,-0.9 z M 149.842,24 v -3.03 l -0.39,-0.75 v -5.58 c 0,-0.9 -0.28,-1.59 -0.84,-2.07 -0.54,-0.5 -1.41,-0.75 -2.61,-0.75 -0.78,0 -1.57,0.13 -2.37,0.39 -0.8,0.24 -1.48,0.58 -2.04,1.02 l -1.92,-3.87 c 0.92,-0.6 2.02,-1.06 3.3,-1.38 1.3,-0.34 2.59,-0.51 3.87,-0.51 2.64,0 4.68,0.61 6.12,1.83 1.46,1.2 2.19,3.09 2.19,5.67 V 24 Z m -4.8,0.27 c -1.3,0 -2.4,-0.22 -3.3,-0.66 -0.9,-0.44 -1.59,-1.04 -2.07,-1.8 -0.46,-0.76 -0.69,-1.61 -0.69,-2.55 0,-1 0.25,-1.86 0.75,-2.58 0.52,-0.74 1.31,-1.3 2.37,-1.68 1.06,-0.4 2.43,-0.6 4.11,-0.6 h 3.84 v 2.97 h -3.06 c -0.92,0 -1.57,0.15 -1.95,0.45 -0.36,0.3 -0.54,0.7 -0.54,1.2 0,0.5 0.19,0.9 0.57,1.2 0.38,0.3 0.9,0.45 1.56,0.45 0.62,0 1.18,-0.15 1.68,-0.45 0.52,-0.32 0.9,-0.8 1.14,-1.44 l 0.78,2.1 c -0.3,1.12 -0.89,1.97 -1.77,2.55 -0.86,0.56 -2,0.84 -3.42,0.84 z"
     fill="#ffffff"
     id="path6"
     style="display:none" />
  <g
     clip-path="url(#clip0_787_75)"
     id="g4"
     style="display:none">
    <path
       d="M 9.98438,27 18.8432,9.73712 20.9924,13.9009 14.2773,27 Z"
       fill="#d21c23"
       id="path1" />
    <path
       d="m 23.1418,9.7233 c 1.4934,-2.99785 4.503,-4.9641 7.8699,-4.9641 2.3699,0 4.681,1.00805 6.339,2.7666 l 0.6223,0.6605 1.8748,-3.63065 -0.38,-0.3531 C 37.1406,2.03413 34.1377,0.841919 31.0117,0.841919 c -2.4021,0 -4.7399,0.703421 -6.7619,2.032721 -1.199,0.78789 -2.2535,1.77517 -3.1287,2.91338 z"
       fill="#d21c23"
       id="path2" />
    <path
       d="m 15.2988,16.6453 2.1438,-4.1776 2.1438,4.1776 -2.1424,4.179 z"
       fill="#d21c23"
       id="path3" />
    <path
       d="m 31.0113,27 c -4.1858,0 -8.1496,-2.2017 -10.4887,-5.7866 0,0 -0.7695,-1.339 -0.9127,-1.6478 L 13.8557,8.35104 4.27955,27 H 0 L 13.8557,0 23.3689,18.5382 c 1.5884,2.804 4.5151,4.5445 7.6424,4.5445 2.4476,0 4.8095,-1.0634 6.4796,-2.9189 L 38.1131,19.4728 40,23.1284 39.6333,23.4829 C 37.2835,25.751 34.2203,27 31.0113,27 Z"
       fill="#ffffff"
       id="path4" />
  </g>
  <defs
     id="defs6">
    <clipPath
       id="clip0_787_75">
      <rect
         width="40"
         height="27"
         fill="#ffffff"
         id="rect6"
         x="0"
         y="0" />
    </clipPath>
  </defs>
  <text
     xml:space="preserve"
     style="font-size:27.4249px;letter-spacing:-4.57082px;fill:#000000;stroke-width:2.28541"
     x="-0.74035102"
     y="21.092388"
     id="text7"><tspan
       sodipodi:role="line"
       id="tspan7"
       x="-0.74035102"
       y="21.092388"
       style="font-style:normal;font-variant:normal;font-weight:bold;font-stretch:normal;font-family:'Cinzel Decorative';-inkscape-font-specification:'Cinzel Decorative Bold';letter-spacing:-4.57082px;stroke-width:2.28541"
       dx="0"><tspan
         style="fill:#d21c23;fill-opacity:1;stroke-width:2.28541"
         id="tspan8">R</tspan><tspan
         style="fill:#ffffff;fill-opacity:1;stroke-width:2.28541"
         id="tspan9">A</tspan></tspan></text>
</svg>
